<svg width="158" height="45" viewBox="0 0 158 45" fill="none" xmlns="http://www.w3.org/2000/svg">
<path d="M3.576 35.384C2.68 35.384 1.992 35.128 1.512 34.616C1.032 34.104 0.792 33.4 0.792 32.504V3.656C0.792 2.728 1.048 2.024 1.56 1.544C2.072 1.032 2.776 0.775997 3.672 0.775997C4.472 0.775997 5.096 0.935998 5.544 1.256C6.024 1.544 6.456 2.056 6.84 2.792L18.696 24.728H17.16L29.016 2.792C29.4 2.056 29.816 1.544 30.264 1.256C30.712 0.935998 31.336 0.775997 32.136 0.775997C33.032 0.775997 33.72 1.032 34.2 1.544C34.68 2.024 34.92 2.728 34.92 3.656V32.504C34.92 33.4 34.68 34.104 34.2 34.616C33.752 35.128 33.064 35.384 32.136 35.384C31.24 35.384 30.552 35.128 30.072 34.616C29.592 34.104 29.352 33.4 29.352 32.504V10.28H30.408L20.328 28.664C20.008 29.208 19.672 29.608 19.32 29.864C18.968 30.12 18.488 30.248 17.88 30.248C17.272 30.248 16.776 30.12 16.392 29.864C16.008 29.576 15.672 29.176 15.384 28.664L5.208 10.232H6.36V32.504C6.36 33.4 6.12 34.104 5.64 34.616C5.192 35.128 4.504 35.384 3.576 35.384ZM50.2879 35.48C48.3359 35.48 46.7199 35.128 45.4399 34.424C44.1599 33.688 43.1999 32.6 42.5599 31.16C41.9519 29.72 41.6479 27.928 41.6479 25.784V14.168C41.6479 13.144 41.9039 12.392 42.4159 11.912C42.9279 11.4 43.6639 11.144 44.6239 11.144C45.5839 11.144 46.3199 11.4 46.8319 11.912C47.3759 12.392 47.6479 13.144 47.6479 14.168V25.88C47.6479 27.544 47.9839 28.776 48.6559 29.576C49.3279 30.376 50.3999 30.776 51.8719 30.776C53.4719 30.776 54.7839 30.232 55.8079 29.144C56.8319 28.024 57.3439 26.552 57.3439 24.728V14.168C57.3439 13.144 57.5999 12.392 58.1119 11.912C58.6239 11.4 59.3599 11.144 60.3199 11.144C61.2799 11.144 62.0159 11.4 62.5279 11.912C63.0719 12.392 63.3439 13.144 63.3439 14.168V32.312C63.3439 34.36 62.3679 35.384 60.4159 35.384C59.4879 35.384 58.7679 35.128 58.2559 34.616C57.7439 34.072 57.4879 33.304 57.4879 32.312V28.664L58.1599 30.104C57.4879 31.832 56.4639 33.16 55.0879 34.088C53.7439 35.016 52.1439 35.48 50.2879 35.48ZM78.1808 35.48C76.8048 35.48 75.3488 35.336 73.8128 35.048C72.2768 34.76 70.9008 34.264 69.6848 33.56C69.1728 33.24 68.8048 32.872 68.5808 32.456C68.3888 32.008 68.3088 31.576 68.3408 31.16C68.4048 30.712 68.5648 30.328 68.8208 30.008C69.1088 29.688 69.4608 29.48 69.8768 29.384C70.3248 29.288 70.8048 29.368 71.3168 29.624C72.5968 30.232 73.7968 30.664 74.9168 30.92C76.0368 31.144 77.1408 31.256 78.2288 31.256C79.7648 31.256 80.9008 31 81.6368 30.488C82.4048 29.944 82.7888 29.24 82.7888 28.376C82.7888 27.64 82.5328 27.08 82.0208 26.696C81.5408 26.28 80.8048 25.976 79.8128 25.784L75.0128 24.872C73.0288 24.488 71.5088 23.768 70.4528 22.712C69.4288 21.624 68.9168 20.232 68.9168 18.536C68.9168 17 69.3328 15.672 70.1648 14.552C71.0288 13.432 72.2128 12.568 73.7168 11.96C75.2208 11.352 76.9488 11.048 78.9008 11.048C80.3088 11.048 81.6208 11.208 82.8368 11.528C84.0848 11.816 85.2848 12.28 86.4368 12.92C86.9168 13.176 87.2368 13.512 87.3968 13.928C87.5888 14.344 87.6368 14.776 87.5408 15.224C87.4448 15.64 87.2528 16.024 86.9648 16.376C86.6768 16.696 86.3088 16.904 85.8608 17C85.4448 17.064 84.9648 16.968 84.4208 16.712C83.4288 16.2 82.4688 15.832 81.5408 15.608C80.6448 15.384 79.7808 15.272 78.9488 15.272C77.3808 15.272 76.2128 15.544 75.4448 16.088C74.7088 16.632 74.3408 17.352 74.3408 18.248C74.3408 18.92 74.5648 19.48 75.0128 19.928C75.4608 20.376 76.1488 20.68 77.0768 20.84L81.8768 21.752C83.9568 22.136 85.5248 22.84 86.5808 23.864C87.6688 24.888 88.2128 26.264 88.2128 27.992C88.2128 30.328 87.3008 32.168 85.4768 33.512C83.6528 34.824 81.2208 35.48 78.1808 35.48ZM104.594 35.48C101.938 35.48 99.6503 34.984 97.7303 33.992C95.8103 33 94.3223 31.592 93.2663 29.768C92.2423 27.944 91.7303 25.784 91.7303 23.288C91.7303 20.856 92.2263 18.728 93.2183 16.904C94.2423 15.08 95.6343 13.656 97.3943 12.632C99.1863 11.576 101.218 11.048 103.49 11.048C105.154 11.048 106.642 11.32 107.954 11.864C109.298 12.408 110.434 13.192 111.362 14.216C112.322 15.24 113.042 16.488 113.522 17.96C114.034 19.4 114.29 21.032 114.29 22.856C114.29 23.432 114.082 23.88 113.666 24.2C113.282 24.488 112.722 24.632 111.986 24.632H96.5783V21.176H110.066L109.298 21.896C109.298 20.424 109.074 19.192 108.626 18.2C108.21 17.208 107.586 16.456 106.754 15.944C105.954 15.4 104.946 15.128 103.73 15.128C102.386 15.128 101.234 15.448 100.274 16.088C99.3463 16.696 98.6263 17.576 98.1143 18.728C97.6343 19.848 97.3943 21.192 97.3943 22.76V23.096C97.3943 25.72 98.0023 27.688 99.2183 29C100.466 30.28 102.29 30.92 104.69 30.92C105.522 30.92 106.45 30.824 107.474 30.632C108.53 30.408 109.522 30.04 110.45 29.528C111.122 29.144 111.714 28.984 112.226 29.048C112.738 29.08 113.138 29.256 113.426 29.576C113.746 29.896 113.938 30.296 114.002 30.776C114.066 31.224 113.97 31.688 113.714 32.168C113.49 32.648 113.09 33.064 112.514 33.416C111.394 34.12 110.098 34.648 108.626 35C107.186 35.32 105.842 35.48 104.594 35.48ZM123.556 35.384C122.596 35.384 121.844 35.128 121.3 34.616C120.788 34.072 120.532 33.304 120.532 32.312V16.04H118.324C117.556 16.04 116.964 15.848 116.548 15.464C116.132 15.048 115.924 14.488 115.924 13.784C115.924 13.048 116.132 12.488 116.548 12.104C116.964 11.72 117.556 11.528 118.324 11.528H122.26L120.532 13.112V11.48C120.532 8.184 121.364 5.72 123.028 4.088C124.692 2.424 127.092 1.448 130.228 1.16L131.86 1.016C132.5 0.951999 133.012 1.064 133.396 1.352C133.78 1.608 134.036 1.96 134.164 2.408C134.292 2.824 134.308 3.256 134.212 3.704C134.116 4.152 133.908 4.552 133.588 4.904C133.3 5.224 132.916 5.4 132.436 5.432L131.764 5.48C129.94 5.608 128.612 6.072 127.78 6.872C126.948 7.672 126.532 8.888 126.532 10.52V12.296L125.764 11.528H130.612C131.38 11.528 131.972 11.72 132.388 12.104C132.804 12.488 133.012 13.048 133.012 13.784C133.012 14.488 132.804 15.048 132.388 15.464C131.972 15.848 131.38 16.04 130.612 16.04H126.532V32.312C126.532 34.36 125.54 35.384 123.556 35.384ZM141.916 44.024C141.212 44.024 140.636 43.832 140.188 43.448C139.74 43.096 139.468 42.616 139.372 42.008C139.308 41.4 139.42 40.76 139.708 40.088L142.972 32.84V35.336L134.236 15.128C133.948 14.424 133.852 13.768 133.948 13.16C134.044 12.552 134.332 12.072 134.812 11.72C135.324 11.336 136.012 11.144 136.876 11.144C137.612 11.144 138.204 11.32 138.652 11.672C139.1 11.992 139.5 12.616 139.852 13.544L146.332 29.72H144.892L151.516 13.496C151.868 12.6 152.284 11.992 152.764 11.672C153.244 11.32 153.884 11.144 154.684 11.144C155.388 11.144 155.948 11.336 156.364 11.72C156.78 12.072 157.036 12.552 157.132 13.16C157.228 13.736 157.116 14.376 156.796 15.08L145.132 41.72C144.716 42.616 144.268 43.224 143.788 43.544C143.308 43.864 142.684 44.024 141.916 44.024Z" fill="white"/>
</svg>
